Normalized EMG Linear Envelopes
nRows=119
nColumns=4

endheader
time	 med_gas_r	  soleus_r	 tib_ant_r	
2.87482	  0.163087	  0.148033	  0.067212	
2.93731	  0.156178	  0.145924	  0.069448	
2.99981	  0.151254	  0.142846	  0.073726	
3.0623	  0.145766	  0.141249	  0.074954	
3.1248	  0.143980	  0.142326	  0.072664	
3.1873	  0.144798	  0.143554	  0.068632	
3.24979	  0.145645	  0.146010	  0.065859	
3.31229	  0.150168	  0.149239	  0.065935	
3.37478	  0.153060	  0.151185	  0.067331	
3.43728	  0.152948	  0.151627	  0.070602	
3.49978	  0.152524	  0.151351	  0.075921	
3.56227	  0.150597	  0.148835	  0.080860	
3.62477	  0.153728	  0.144778	  0.083166	
3.68726	  0.158846	  0.140708	  0.078545	
3.74976	  0.158672	  0.136985	  0.070528	
3.81226	  0.157139	  0.136103	  0.063735	
3.87475	  0.153404	  0.139971	  0.059518	
3.93725	  0.152171	  0.142099	  0.057831	
3.99974	  0.153067	  0.140878	  0.059125	
4.06224	  0.154898	  0.141613	  0.065328	
4.12474	  0.160460	  0.146134	  0.081348	
4.18723	  0.164689	  0.156248	  0.117645	
4.24973	  0.172028	  0.171024	  0.180346	
4.31222	  0.184316	  0.183268	  0.263293	
4.37472	  0.204584	  0.186982	  0.356480	
4.43722	  0.236914	  0.184248	  0.446580	
4.49971	  0.279005	  0.177926	  0.528037	
4.56221	  0.327280	  0.172417	  0.609701	
4.6247	  0.376769	  0.175146	  0.685984	
4.6872	  0.408117	  0.189567	  0.740859	
4.7497	  0.413051	  0.211911	  0.761481	
4.81219	  0.410642	  0.233831	  0.777114	
4.87469	  0.414484	  0.242900	  0.795920	
4.93718	  0.421812	  0.241475	  0.810084	
4.99968	  0.429043	  0.237540	  0.817808	
5.06218	  0.436219	  0.234416	  0.834998	
5.12467	  0.450736	  0.232746	  0.852938	
5.18717	  0.471334	  0.229773	  0.875005	
5.24966	  0.483690	  0.222293	  0.897673	
5.31216	  0.492060	  0.209572	  0.898067	
5.37466	  0.499008	  0.202354	  0.854250	
5.43715	  0.512222	  0.206274	  0.786792	
5.49965	  0.531220	  0.214978	  0.716091	
5.56214	  0.554792	  0.220006	  0.692186	
5.62464	  0.566159	  0.220422	  0.734058	
5.68714	  0.574063	  0.216685	  0.814602	
5.74963	  0.583340	  0.219343	  0.897700	
5.81213	  0.598720	  0.234759	  0.934517	
5.87462	  0.629008	  0.256183	  0.920426	
5.93712	  0.649052	  0.278882	  0.889918	
5.99962	  0.658688	  0.301280	  0.852307	
6.06211	  0.658952	  0.315657	  0.823261	
6.12461	  0.660625	  0.315818	  0.842871	
6.1871	  0.666386	  0.312236	  0.890785	
6.2496	  0.665039	  0.317603	  0.929886	
6.3121	  0.659728	  0.332918	  0.950451	
6.37459	  0.655518	  0.340781	  0.936660	
6.43709	  0.661160	  0.341009	  0.883294	
6.49958	  0.688722	  0.341408	  0.801518	
6.56208	  0.711582	  0.339989	  0.727856	
6.62458	  0.705157	  0.335592	  0.695332	
6.68707	  0.676861	  0.329216	  0.702091	
6.74957	  0.637892	  0.323719	  0.716424	
6.81206	  0.616126	  0.328489	  0.706270	
6.87456	  0.615971	  0.332706	  0.694323	
6.93706	  0.632560	  0.326998	  0.681363	
6.99955	  0.656924	  0.324989	  0.661684	
7.06205	  0.669727	  0.333471	  0.644536	
7.12454	  0.673838	  0.354653	  0.653598	
7.18704	  0.685431	  0.377849	  0.700827	
7.24954	  0.684788	  0.398121	  0.761527	
7.31203	  0.652131	  0.415866	  0.772944	
7.37453	  0.598816	  0.425355	  0.721649	
7.43702	  0.542110	  0.427201	  0.663622	
7.49952	  0.501810	  0.426154	  0.637523	
7.56202	  0.486468	  0.420321	  0.649831	
7.62451	  0.495474	  0.415705	  0.663162	
7.68701	  0.520734	  0.428239	  0.641824	
7.7495	  0.548826	  0.452277	  0.620525	
7.812	  0.563385	  0.463559	  0.619577	
7.8745	  0.554694	  0.465228	  0.637783	
7.93699	  0.544324	  0.468074	  0.643749	
7.99949	  0.533331	  0.454541	  0.620433	
8.06198	  0.524881	  0.438044	  0.590559	
8.12448	  0.530419	  0.420907	  0.577257	
8.18698	  0.545737	  0.399543	  0.586676	
8.24947	  0.565862	  0.379336	  0.618649	
8.31197	  0.574637	  0.377302	  0.649521	
8.37446	  0.565675	  0.391630	  0.641370	
8.43696	  0.540500	  0.400400	  0.613069	
8.49946	  0.523852	  0.396992	  0.591148	
8.56195	  0.524938	  0.389089	  0.587884	
8.62445	  0.549349	  0.392680	  0.600718	
8.68694	  0.573809	  0.416921	  0.637528	
8.74944	  0.589417	  0.450269	  0.705174	
8.81194	  0.597710	  0.477418	  0.765529	
8.87443	  0.610580	  0.506374	  0.781310	
8.93693	  0.623039	  0.530569	  0.735227	
8.99942	  0.625973	  0.534892	  0.658334	
9.06192	  0.625829	  0.524450	  0.600715	
9.12442	  0.615719	  0.508191	  0.584343	
9.18691	  0.578784	  0.485532	  0.600178	
9.24941	  0.532685	  0.465290	  0.606873	
9.3119	  0.486525	  0.447075	  0.579527	
9.3744	  0.448476	  0.427985	  0.538779	
9.4369	  0.422025	  0.405472	  0.496592	
9.49939	  0.398927	  0.369490	  0.462429	
9.56189	  0.368692	  0.325611	  0.436874	
9.62438	  0.341975	  0.283232	  0.406640	
9.68688	  0.319613	  0.248565	  0.374411	
9.74938	  0.292581	  0.215316	  0.341473	
9.81187	  0.262110	  0.182466	  0.317511	
9.87437	  0.228354	  0.154334	  0.305210	
9.93686	  0.199276	  0.139359	  0.296071	
9.99936	  0.186866	  0.137732	  0.286758	
10.0619	  0.193017	  0.146097	  0.279965	
10.1244	  0.197344	  0.154026	  0.276303	
10.1868	  0.182378	  0.154554	  0.281380	
10.2493	  0.162976	  0.148655	  0.290755	
